<?xml version="1.0" encoding="utf-8"?>
<!-- Generator: Adobe Illustrator 16.0.0, SVG Export Plug-In . SVG Version: 6.00 Build 0)  -->
<!DOCTYPE svg PUBLIC "-//W3C//DTD SVG 1.1//EN" "http://www.w3.org/Graphics/SVG/1.1/DTD/svg11.dtd">
<svg version="1.1" id="Layer_1" xmlns="http://www.w3.org/2000/svg" xmlns:xlink="http://www.w3.org/1999/xlink" x="0px" y="0px"
	 width="128px" height="128px" viewBox="0 0 128 128" enable-background="new 0 0 128 128" xml:space="preserve">
<g>
	<g>
		<rect x="36.412" y="68.82" fill="#282D33" width="55.178" height="4"/>
	</g>
	<g>
		<rect x="36.412" y="55.179" fill="#282D33" width="55.178" height="4"/>
	</g>
	<g>
		<g>
			<path fill="#282D33" d="M38.311,92.083H21.269V35.917h17.042V92.083z M25.269,88.083h9.042V39.917h-9.042V88.083z"/>
		</g>
		<g>
			<rect y="51.961" fill="#282D33" width="4" height="24.078"/>
		</g>
		<g>
			<path fill="#282D33" d="M25.469,92.083H8.427V35.917h17.042V92.083z M12.427,88.083h9.042V39.917h-9.042V88.083z"/>
		</g>
		<g>
			<path fill="#282D33" d="M106.73,92.083H89.689V35.917h17.041V92.083z M93.689,88.083h9.041V39.917h-9.041V88.083z"/>
		</g>
		<g>
			<rect x="124" y="51.961" fill="#282D33" width="4" height="24.078"/>
		</g>
		<g>
			<path fill="#282D33" d="M119.573,92.083h-17.041V35.917h17.041V92.083z M106.532,88.083h9.041V39.917h-9.041V88.083z"/>
		</g>
	</g>
	<g>
		<g>
			<rect x="59.693" y="12.835" fill="#282D33" width="4" height="13.844"/>
		</g>
		<g>
			
				<rect x="39.675" y="20.632" transform="matrix(0.342 0.9397 -0.9397 0.342 51.9305 -28.8967)" fill="#282D33" width="13.846" height="4"/>
		</g>
		<g>
			
				<rect x="45.728" y="98.856" transform="matrix(0.9396 0.3423 -0.3423 0.9396 39.0856 -9.9468)" fill="#282D33" width="4" height="13.847"/>
		</g>
		<g>
			<rect x="60.896" y="101.32" fill="#282D33" width="4" height="13.845"/>
		</g>
		<g>
			
				<rect x="71.071" y="103.368" transform="matrix(0.3417 0.9398 -0.9398 0.3417 150.3658 -3.9355)" fill="#282D33" width="13.843" height="4.001"/>
		</g>
		<g>
			
				<rect x="74.861" y="15.299" transform="matrix(0.9396 0.3423 -0.3423 0.9396 12.2509 -24.9693)" fill="#282D33" width="3.999" height="13.845"/>
		</g>
	</g>
</g>
</svg>
